<svg xmlns="http://www.w3.org/2000/svg" xmlns:xlink="http://www.w3.org/1999/xlink" version="1.1" xml:space="preserve" viewBox="0 0 1080 1080">
<desc>Created with Fabric.js 5.2.4</desc>
<defs>
</defs>
<g transform="matrix(1 0 0 1 540 540)" id="dda6d37c-d374-43a3-9cd5-0f46afb4b88d">
<rect style="stroke: none; stroke-width: 1; stroke-dasharray: none; stroke-linecap: butt; stroke-dashoffset: 0; stroke-linejoin: miter; stroke-miterlimit: 4; fill: rgb(255,255,255); fill-rule: nonzero; opacity: 1; visibility: hidden;" vector-effect="non-scaling-stroke" x="-540" y="-540" rx="0" ry="0" width="1080" height="1080"/>
</g>
<g transform="matrix(1 0 0 1 540 540)" id="849fb2a2-df7d-4fb0-a644-e2ad14b0dae7">
</g>
<g transform="matrix(1.74 0 0 1.74 540 599.97)" id="7ce0062c-e979-45c6-8101-a141f4205076">
<path style="stroke: rgb(0,0,0); stroke-width: 0; stroke-dasharray: none; stroke-linecap: butt; stroke-dashoffset: 0; stroke-linejoin: miter; stroke-miterlimit: 4; fill: rgb(0,0,0); fill-rule: nonzero; opacity: 1;" vector-effect="non-scaling-stroke" transform=" translate(-173, -279.05)" d="M 273 107.6 L 273 450.5 L 187.3 450.5 L 187.3 107.6 L 273 107.6 z M 15.9 136.1 C 94.80000000000001 136.1 158.8 200.1 158.8 279 C 158.8 357.9 94.80000000000001 421.9 15.900000000000006 421.9 C -63 421.9 -127 357.9 -127 279 C -127 200.10000000000002 -63 136.1 15.9 136.1 z M 362.2 193.3 L 387.3 218.4 L 412.40000000000003 193.3 L 473 193.3 L 473 253.9 L 447.9 279 L 473 304.1 L 473 364.70000000000005 L 412.4 364.70000000000005 L 387.29999999999995 339.6 L 362.19999999999993 364.70000000000005 L 301.5999999999999 364.70000000000005 L 301.5999999999999 304.1 L 326.69999999999993 279 L 301.5999999999999 253.9 L 301.5999999999999 193.3 L 362.2 193.3 z M 15.9 221.9 C -15.6 221.9 -41.2 247.5 -41.2 279 C -41.2 310.5 -15.600000000000001 336.1 15.899999999999999 336.1 C 47.4 336.1 73 310.5 73 279 C 73 247.5 47.4 221.9 15.9 221.9 z" stroke-linecap="round"/>
</g>
</svg>